<svg xmlns="http://www.w3.org/2000/svg" viewBox="0 0 32 32">
  <defs>
    <linearGradient id="cloudGrad" x1="0%" y1="0%" x2="100%" y2="100%">
      <stop offset="0%" style="stop-color:#4facfe;stop-opacity:1" />
      <stop offset="100%" style="stop-color:#00f2fe;stop-opacity:1" />
    </linearGradient>
  </defs>
  <path fill="url(#cloudGrad)" d="M22 10c-3.3 0-6 2.7-6 6s2.7 6 6 6 6-2.7 6-6-2.7-6-6-6zm-10 0C8.7 10 6 12.7 6 16s2.7 6 6 6c.7 0 1.3-.1 1.9-.3C15 13.8 17.5 12 20.5 12c.5 0 1 .1 1.4.2C21.1 9.7 18.7 8 16 8c-3.9 0-7 3.1-7 7 0 .4 0 .9.1 1.3-.3-.2-.6-.3-1-.3-.5 0-1 .2-1.3.6C5.9 15.1 4.3 14 2.4 14c-2.1 0-3.9 1.3-4.6 3.1-.5-.7-1.3-1.1-2.2-1.1-1.1 0-1.9.9-1.9 1.9V22h0z" transform="translate(5, 2)" />
  <circle cx="21" cy="18" r="2.5" fill="white" fill-opacity="0.6" />
</svg>
